<svg width="48" height="57" viewBox="0 0 48 57" fill="none" xmlns="http://www.w3.org/2000/svg">
<path fill-rule="evenodd" clip-rule="evenodd" d="M16.6017 23.6482C17.0006 23.3544 17.398 23.0506 17.7998 22.7554C18.6652 22.1261 19.548 21.5069 20.4451 20.8949C21.0009 20.5162 21.5568 20.1403 22.1212 19.7645C22.6598 19.4117 23.1998 19.0531 23.7456 18.7003C24.8932 17.9501 25.6276 18.1258 25.9315 18.7349C26.28 19.4333 26.0683 20.6991 25.2792 21.7963C24.9278 22.2845 24.5692 22.7568 24.1344 23.2435C24.1344 23.2435 23.7096 23.6741 21.8707 25.7391C21.2169 26.4763 20.3832 27.4181 19.3276 28.6205C18.4276 29.6415 17.5593 30.6624 16.786 31.6258C16.1438 32.425 15.5635 33.1867 15.0868 33.8736C14.544 34.6512 13.932 35.4187 13.5835 36.3015C13.1644 37.3656 13.1198 38.5968 14.027 40.2139C10.5249 35.9847 10.7956 27.9379 16.6017 23.6482Z" stroke="white" stroke-width="2"/>
<path fill-rule="evenodd" clip-rule="evenodd" d="M16.5851 23.6467C16.5894 23.6438 10.6883 28.429 8.36268 30.8971C6.03708 33.3667 4.19676 35.8622 3.05052 38.3261C2.25132 40.0382 1.78764 41.7331 1.72572 43.3906C1.6638 44.9731 2.15196 46.4016 2.99868 47.6775C3.6726 48.6912 4.57116 49.607 5.60508 50.4322C8.17836 52.4827 11.5883 53.9544 14.4193 54.8703C15.6505 55.2677 16.7723 55.5586 17.668 55.7472C17.668 55.7472 20.3348 56.3779 21.9548 54.0437C23.6425 51.4934 22.0009 49.332 22.0009 49.332C21.4753 48.6322 20.8244 47.8589 20.0353 47.0093C18.7595 45.6384 17.3828 44.2546 16.1171 42.8218C15.3683 41.9722 14.6814 41.0535 14.055 40.1621C14.055 40.1621 8.81484 34.2206 14.1515 26.076C14.7678 25.2264 15.4662 24.5669 16.5851 23.6467Z" stroke="white" stroke-width="2"/>
<path fill-rule="evenodd" clip-rule="evenodd" d="M33.948 8.09913C33.5851 7.76361 33.2251 7.41513 32.8579 7.07529C32.0717 6.35097 31.2667 5.63674 30.443 4.92682C29.9376 4.48762 29.4235 4.04985 28.9066 3.61209C28.4126 3.20026 27.9158 2.7841 27.4133 2.37226C26.3592 1.4953 25.6104 1.58458 25.2389 2.15626C24.8126 2.81002 24.8789 4.09161 25.5398 5.27385C25.8293 5.79801 26.1331 6.30778 26.5118 6.83914C26.5118 6.83914 26.8862 7.31721 28.4774 9.57657C29.0419 10.383 29.7634 11.4126 30.6778 12.7287C31.4554 13.8462 32.1998 14.9607 32.8622 16.0047C33.4066 16.8702 33.8976 17.6939 34.2922 18.4297C34.7429 19.2649 35.2613 20.0972 35.5104 21.0116C35.8042 22.1175 35.7106 23.3459 34.6262 24.8492C38.5834 21.0462 39.2314 13.0225 33.948 8.09913Z" stroke="white" stroke-width="2"/>
<path fill-rule="evenodd" clip-rule="evenodd" d="M33.9662 8.09912C33.9619 8.09624 39.2798 13.5222 41.3116 16.2366C43.3435 18.9553 44.8828 21.6452 45.7454 24.2228C46.3444 26.0142 46.6137 27.7508 46.4856 29.4054C46.3646 30.9822 45.7195 32.3458 44.7316 33.5209C43.9497 34.4482 42.9504 35.2575 41.83 35.9602C39.0393 37.7026 35.4854 38.7783 32.5665 39.3658C31.3008 39.6222 30.156 39.7834 29.2416 39.8684C29.2416 39.8684 26.52 40.1938 25.1764 37.6897C23.7883 34.9623 25.6646 33.0025 25.6646 33.0025C26.268 32.366 26.9995 31.6734 27.8836 30.9174C29.3092 29.6991 30.8313 28.4823 32.2526 27.2036C33.0907 26.4462 33.8784 25.611 34.6027 24.7945C34.6027 24.7945 40.4836 19.4866 36.1075 10.7905C35.5905 9.8732 34.9713 9.14024 33.9662 8.09912Z" stroke="white" stroke-width="2"/>
</svg>
