<svg width="28" height="29" viewBox="0 0 28 29" fill="none" xmlns="http://www.w3.org/2000/svg">
<mask id="mask0_0_242" style="mask-type:alpha" maskUnits="userSpaceOnUse" x="0" y="0" width="28" height="29">
<path fill-rule="evenodd" clip-rule="evenodd" d="M0 0.576172H27.5155V28.0397H0V0.576172Z" fill="white"/>
</mask>
<g mask="url(#mask0_0_242)">
<path fill-rule="evenodd" clip-rule="evenodd" d="M13.7318 0.628012C10.0109 0.628012 9.54432 0.628012 8.08128 0.708652C6.9431 0.732268 5.8176 0.948268 4.752 1.34801C2.8944 2.05534 1.42733 3.52241 0.72 5.38001C0.320256 6.44561 0.104256 7.57112 0.08064 8.70929C0.01728 10.1723 0 10.6389 0 14.3599C0 18.0808 0 18.5474 0.08064 20.0104C0.12672 21.1336 0.36 22.2413 0.77184 23.2879C1.47974 25.1449 2.94624 26.6119 4.80384 27.3199C5.86944 27.7196 6.99552 27.9356 8.13312 27.9592C9.59616 28.0226 10.0627 28.0399 13.7837 28.0399C17.5046 28.0399 17.9712 28.0399 19.4342 27.9592C20.5718 27.9356 21.6979 27.7196 22.7635 27.3199C24.6211 26.6119 26.0882 25.1449 26.7955 23.2879C27.1953 22.2223 27.4113 21.0962 27.4349 19.9586C27.4982 18.4955 27.5155 18.029 27.5155 14.308C27.5155 10.5871 27.5155 10.1205 27.4349 8.65745C27.4113 7.51928 27.1953 6.39377 26.7955 5.32817C26.0882 3.47057 24.6211 2.0035 22.7635 1.29617C21.6979 0.896428 20.5718 0.680428 19.4342 0.656812C17.9712 0.593452 17.5046 0.576172 13.7837 0.576172L13.7318 0.628012ZM13.7318 3.07601C17.3894 3.07601 17.8272 3.07601 19.273 3.15665C20.1427 3.16414 21.0044 3.32427 21.8189 3.62897C23.0112 4.09208 23.9535 5.03441 24.4166 6.22673C24.7213 7.0412 24.8815 7.90289 24.889 8.77265C24.9581 10.2184 24.9696 10.6562 24.9696 14.3138C24.9696 17.9714 24.9696 18.4091 24.889 19.8549C24.8815 20.7247 24.7213 21.5863 24.4166 22.4008C23.9535 23.5931 23.0112 24.5355 21.8189 24.9986C21.0044 25.3033 20.1427 25.4634 19.273 25.4709C17.8272 25.54 17.3952 25.5515 13.7318 25.5515C10.0685 25.5515 9.63648 25.5515 8.19072 25.4709C7.32096 25.4634 6.45926 25.3033 5.6448 24.9986C4.46227 24.5274 3.53088 23.5833 3.07584 22.3951C2.77114 21.58 2.61101 20.7189 2.60352 19.8491C2.5344 18.4034 2.52288 17.9656 2.52288 14.308C2.52288 10.6504 2.52288 10.2127 2.60352 8.76689C2.61101 7.89713 2.77114 7.03544 3.07584 6.22097C3.53894 5.04536 4.46918 4.11512 5.6448 3.65201C6.45926 3.34731 7.32096 3.18718 8.19072 3.17969C9.63648 3.11057 10.0742 3.09905 13.7318 3.09905V3.07601Z" fill="white"/>
</g>
<path fill-rule="evenodd" clip-rule="evenodd" d="M13.7318 18.8754C11.2095 18.8754 9.16416 16.8306 9.16416 14.3078C9.16416 11.7849 11.2095 9.74008 13.7318 9.74008C16.2541 9.74008 18.2995 11.7849 18.2995 14.3078C18.2995 16.8306 16.2541 18.8754 13.7318 18.8754ZM13.7318 7.26904C9.84441 7.26904 6.69312 10.4203 6.69312 14.3078C6.69312 18.1952 9.84441 21.3465 13.7318 21.3465C17.6193 21.3465 20.7706 18.1952 20.7706 14.3078C20.7706 10.4203 17.6193 7.26904 13.7318 7.26904Z" fill="white"/>
<path fill-rule="evenodd" clip-rule="evenodd" d="M21.0473 5.34521C21.9568 5.34521 22.6946 6.08249 22.6946 6.99257C22.6946 7.90208 21.9568 8.63993 21.0473 8.63993C20.1372 8.63993 19.3999 7.90208 19.3999 6.99257C19.3999 6.08249 20.1372 5.34521 21.0473 5.34521Z" fill="white"/>
</svg>
