<svg width="71" height="34" viewBox="0 0 71 34" fill="none" xmlns="http://www.w3.org/2000/svg">
<path d="M22.0881 14.0114C21.1197 18.7411 16.9358 22.2993 11.9196 22.2993C6.18692 22.2993 1.54004 17.6517 1.54004 11.9198C1.54004 6.18716 6.18692 1.54028 11.9196 1.54028C16.8854 1.54028 21.0369 5.02796 22.0586 9.6878" stroke="white" stroke-width="2" stroke-linecap="round" stroke-linejoin="round"/>
<path fill-rule="evenodd" clip-rule="evenodd" d="M45.9087 11.9196C45.9087 17.6515 41.2611 22.2991 35.5292 22.2991C29.7965 22.2991 25.1497 17.6515 25.1497 11.9196C25.1497 6.18692 29.7965 1.54004 35.5292 1.54004C41.2611 1.54004 45.9087 6.18692 45.9087 11.9196Z" stroke="white" stroke-width="2" stroke-linecap="round" stroke-linejoin="round"/>
<path fill-rule="evenodd" clip-rule="evenodd" d="M33.9133 22.452C33.9133 28.1839 29.2665 32.8316 23.5338 32.8316C17.8019 32.8316 13.155 28.1839 13.155 22.452C13.155 16.7194 17.8019 12.0725 23.5338 12.0725C29.2665 12.0725 33.9133 16.7194 33.9133 22.452Z" stroke="white" stroke-width="2" stroke-linecap="round" stroke-linejoin="round"/>
<path fill-rule="evenodd" clip-rule="evenodd" d="M57.9307 22.452C57.9307 28.1839 53.2838 32.8316 47.5512 32.8316C41.8192 32.8316 37.1724 28.1839 37.1724 22.452C37.1724 16.7194 41.8192 12.0725 47.5512 12.0725C53.2838 12.0725 57.9307 16.7194 57.9307 22.452Z" stroke="white" stroke-width="2" stroke-linecap="round" stroke-linejoin="round"/>
<path d="M49.0352 9.52868C50.1152 4.94876 54.2286 1.54028 59.1376 1.54028C64.8702 1.54028 69.5171 6.18716 69.5171 11.9198C69.5171 17.6517 64.8702 22.2993 59.1376 22.2993C54.122 22.2993 49.9374 18.7411 48.969 14.0114" stroke="white" stroke-width="2" stroke-linecap="round" stroke-linejoin="round"/>
</svg>
