<?xml version="1.0" encoding="UTF-8"?>
<svg width="237px" height="202px" viewBox="0 0 237 202" version="1.1" xmlns="http://www.w3.org/2000/svg" xmlns:xlink="http://www.w3.org/1999/xlink">
    <!-- Generator: Sketch 63.1 (92452) - https://sketch.com -->
    <title>img_g_white</title>
    <desc>Created with Sketch.</desc>
    <g id="Web" stroke="none" stroke-width="1" fill="none" fill-rule="evenodd">
        <g id="KSG-Landing-Page" transform="translate(-250.000000, -599.000000)" fill="#FFFFFF">
            <g id="Stage-1-Slider">
                <path d="M473.741139,702.484675 L387.56282,702.484675 L387.56282,715.730576 L469.874684,715.730576 L469.874684,716.828704 C469.874684,772.854595 418.225005,787.476362 372.366455,787.476362 C315.468833,787.476362 266.847307,762.368969 266.847307,701.104537 L266.847307,698.895463 C266.847307,638.741978 318.783549,611.694701 371.814715,611.694701 C406.069624,611.694701 451.094149,619.971253 462.693514,657.504157 L479.81883,657.504157 C468.493196,611.143501 413.250794,599 371.814715,599 C311.320093,599 250,633.217155 250,698.895463 L250,701.104537 C250,771.649646 311.435574,800.918815 372.952411,801 C413.952231,800.944453 453.780138,789.920444 473.741139,760.668366 L473.741139,798.790925 L487,798.790925 L487,713.794966 L487,702.484675 L487,702.441946 L473.741139,702.441946 L473.741139,702.484675 Z" id="img_g_white"></path>
            </g>
        </g>
    </g>
</svg>