<?xml version="1.0" encoding="UTF-8"?>
<svg width="200px" height="202px" viewBox="0 0 200 202" version="1.1" xmlns="http://www.w3.org/2000/svg" xmlns:xlink="http://www.w3.org/1999/xlink">
    <!-- Generator: Sketch 63.1 (92452) - https://sketch.com -->
    <title>img_s_white</title>
    <desc>Created with Sketch.</desc>
    <g id="Web" stroke="none" stroke-width="1" fill="none" fill-rule="evenodd">
        <g id="KSG-Landing-Page" transform="translate(-990.000000, -360.000000)" fill="#FFFFFF">
            <g id="Stage-1-Slider">
                <path d="M1096.32125,441.238576 C1084.23175,439.865901 1074.3415,438.493226 1066.64625,436.844315 C1053.73575,434.3752 1036.97975,429.985189 1036.97975,414.061306 C1036.97975,389.914121 1071.32125,387.997475 1088.35375,387.997475 C1110.878,387.997475 1138.0815,390.734326 1144.3985,416.806657 L1182.5855,416.806657 C1176.5365,369.876462 1127.6425,360 1087.805,360 C1052.36175,360 998.51625,371.797358 998.51625,416.258436 C998.51625,463.192881 1052.09376,469.784272 1088.07725,473.621813 C1102.63825,475.266473 1124.34575,477.744088 1137.805,483.77876 C1146.87,487.896785 1151.813,493.931457 1151.813,504.088404 C1151.813,531.533409 1114.7235,535.3752 1094.67075,535.3752 C1067.75225,535.3752 1034.50825,530.436969 1029.561,499.150173 L990,499.150173 C995.768249,550.746613 1051.813,562 1094.67075,562 C1133.68726,562 1190,548.553732 1190,499.970378 C1190,450.294833 1134.23175,444.804132 1096.32125,441.238576" id="img_s_white"></path>
            </g>
        </g>
    </g>
</svg>