<svg width="202" height="61" viewBox="0 0 202 61" fill="none" xmlns="http://www.w3.org/2000/svg">
<path fill-rule="evenodd" clip-rule="evenodd" d="M60.2872 30.1435C60.2872 46.7914 46.7915 60.287 30.1436 60.287C13.4958 60.287 0.00012207 46.7914 0.00012207 30.1435C0.00012207 13.4957 13.4958 0 30.1436 0C46.7915 0 60.2872 13.4957 60.2872 30.1435Z" fill="#53B95F"/>
<path fill-rule="evenodd" clip-rule="evenodd" d="M80.0152 16.0847C80.9383 16.0847 84.9631 15.7848 89.8562 19.4774C90.0754 19.643 90.1204 19.9565 89.9606 20.1801L87.6098 23.4741C87.4409 23.7106 87.1112 23.7585 86.8819 23.5806C86.4491 23.2451 85.7122 22.7166 84.8468 22.2742C83.4575 21.5636 81.61 20.9638 80.0152 20.9638C78.4204 20.9638 75.8626 21.4847 75.8626 23.9954C75.8626 26.0164 77.6468 26.7742 83.1573 28.1321C86.7418 29.0638 90.9257 30.7846 90.9257 36.2796C90.9257 41.3322 86.726 44.5215 80.9311 44.5215C77.4398 44.5215 72.6525 43.1967 69.6123 40.1345C69.428 39.9484 69.4233 39.6485 69.5929 39.4491L72.2371 36.3369C72.425 36.1155 72.7598 36.0939 72.9718 36.2922C73.9762 37.2326 76.912 39.6111 80.9152 39.6111C85.6838 39.6111 85.4941 36.7372 85.4941 36.3113C85.4941 35.3955 84.8309 34.1164 82.4783 33.4529C80.1257 32.7898 74.2207 31.6846 72.0099 29.111C70.652 27.5003 70.4626 25.7162 70.4626 24.3741C70.4626 21.3425 72.4207 16.0847 80.0152 16.0847Z" fill="#53B95F"/>
<path fill-rule="evenodd" clip-rule="evenodd" d="M103.483 39.8619C100.513 39.8619 97.9932 37.2821 97.9932 33.5921C97.9932 31.3421 99.4033 27.412 103.423 27.412C107.443 27.412 108.973 30.652 108.973 33.5921C108.973 36.5319 107.353 39.8619 103.483 39.8619ZM104.616 22.6643C100.363 22.6643 98.0681 25.792 98.0681 25.792V23.6248C98.0681 23.3429 97.8399 23.1143 97.558 23.1143H93.1933C92.9115 23.1143 92.6832 23.3429 92.6832 23.6248V49.8216C92.6832 50.1035 92.9115 50.3321 93.1933 50.3321H97.5731C97.8546 50.3321 98.0832 50.1035 98.0832 49.8216V41.6619C98.0832 41.6619 100.213 44.5213 104.844 44.5213C108.516 44.5213 114.433 41.5719 114.433 33.6821C114.433 25.792 108.868 22.6643 104.616 22.6643Z" fill="#53B95F"/>
<path fill-rule="evenodd" clip-rule="evenodd" d="M127.078 39.8619C124.273 39.8619 121.213 37.5143 121.213 33.618C121.213 29.7217 123.973 27.412 127.078 27.412C129.463 27.412 132.853 29.3844 132.853 33.618C132.853 37.852 129.883 39.8619 127.078 39.8619ZM127.033 22.6643C120.163 22.6643 115.903 28.312 115.903 33.6371C115.903 39.472 120.433 44.5721 127.078 44.5721C133.723 44.5721 138.253 39.3219 138.253 33.6371C138.253 27.952 133.903 22.6643 127.033 22.6643Z" fill="#53B95F"/>
<path fill-rule="evenodd" clip-rule="evenodd" d="M151.993 27.2919V23.5723C151.993 23.2905 151.765 23.0619 151.483 23.0619H146.503V18.0233C146.503 17.7418 146.275 17.5132 145.993 17.5132H141.703C141.422 17.5132 141.193 17.7418 141.193 18.0233V23.0619H139.093C138.812 23.0619 138.583 23.2905 138.583 23.5723V27.2919C138.583 27.5737 138.812 27.802 139.093 27.802H141.193V38.332C141.193 40.7022 142.273 44.452 146.983 44.452C149.15 44.452 151.002 43.6945 151.698 43.368C151.878 43.2841 151.993 43.1045 151.993 42.9054V39.2633C151.993 38.935 151.627 38.7384 151.356 38.9245C150.862 39.2633 150.06 39.6222 148.873 39.6222C146.623 39.6222 146.503 38.0922 146.503 37.0122V27.802H151.483C151.765 27.802 151.993 27.5737 151.993 27.2919Z" fill="#53B95F"/>
<path fill-rule="evenodd" clip-rule="evenodd" d="M160.185 17.194C160.185 19.0243 158.701 20.5082 156.871 20.5082C155.041 20.5082 153.557 19.0243 153.557 17.194C153.557 15.3638 155.041 13.8799 156.871 13.8799C158.701 13.8799 160.185 15.3638 160.185 17.194Z" fill="#53B95F"/>
<path fill-rule="evenodd" clip-rule="evenodd" d="M159.013 44.0919H154.714C154.433 44.0919 154.204 43.8636 154.204 43.5818V23.5722C154.204 23.2904 154.433 23.0618 154.714 23.0618H159.013C159.295 23.0618 159.523 23.2904 159.523 23.5722V43.5818C159.523 43.8636 159.295 44.0919 159.013 44.0919Z" fill="#53B95F"/>
<path fill-rule="evenodd" clip-rule="evenodd" d="M164.263 27.8022H162.193C161.912 27.8022 161.683 27.5736 161.683 27.2921V23.5722C161.683 23.2907 161.912 23.0621 162.193 23.0621H164.263V21.7121C164.263 20.8121 164.413 15.1421 170.773 15.1421C173.923 15.1421 174.95 15.8473 174.95 15.8473V19.6723C174.95 20.0546 174.815 20.3696 174.41 20.2123C174.005 20.0546 172.813 19.7396 171.845 19.7396C170.878 19.7396 169.551 20.3023 169.551 22.0123V23.0621H177.346C177.557 23.0621 177.746 23.1917 177.822 23.3882L183.276 37.4923L188.174 23.4347C188.245 23.2295 188.439 23.0923 188.656 23.0923H193.447C193.674 23.0923 193.831 23.3177 193.749 23.5294C192.625 26.4367 186.256 42.9157 185.436 45.0073C184.536 47.3023 183.006 50.4296 178.618 50.4296C176.073 50.4296 174.432 49.5746 173.749 49.1293C173.535 48.9897 173.456 48.7164 173.564 48.4853L175.127 45.1344C175.192 44.994 175.364 44.94 175.496 45.0214C175.943 45.296 176.961 45.8285 178.146 45.8285C179.889 45.8285 180.666 43.7696 180.666 43.7696L173.983 27.8022H169.584V43.6195C169.584 43.9011 169.356 44.1297 169.074 44.1297H164.762C164.481 44.1297 164.252 43.901 164.252 43.6192L164.263 27.8022Z" fill="#53B95F"/>
<path fill-rule="evenodd" clip-rule="evenodd" d="M197.913 26.2108C198.286 26.2108 198.5 26.0117 198.5 25.7183V25.7082C198.5 25.3796 198.272 25.2107 197.898 25.2107H197.137V26.2108H197.913ZM196.37 24.5188H197.963C198.406 24.5188 198.749 24.6434 198.978 24.872C199.172 25.0664 199.277 25.34 199.277 25.6683V25.6784C199.277 26.2407 198.973 26.5942 198.53 26.7584L199.381 28.0025H198.486L197.739 26.8876H197.729H197.137V28.0025H196.37V24.5188Z" fill="#53B95F"/>
<mask id="mask0_0_299" style="mask-type:alpha" maskUnits="userSpaceOnUse" x="194" y="23" width="8" height="7">
<path fill-rule="evenodd" clip-rule="evenodd" d="M194.469 23.0535H201.047V29.6321H194.469V23.0535Z" fill="white"/>
</mask>
<g mask="url(#mask0_0_299)">
<path fill-rule="evenodd" clip-rule="evenodd" d="M197.758 23.4135C196.143 23.4135 194.829 24.7275 194.829 26.3428C194.829 27.9581 196.143 29.2721 197.758 29.2721C199.373 29.2721 200.687 27.9581 200.687 26.3428C200.687 24.7275 199.373 23.4135 197.758 23.4135ZM197.758 29.6321C195.944 29.6321 194.469 28.1565 194.469 26.3428C194.469 24.5291 195.944 23.0535 197.758 23.0535C199.572 23.0535 201.047 24.5291 201.047 26.3428C201.047 28.1565 199.572 29.6321 197.758 29.6321Z" fill="#53B95F"/>
</g>
<path fill-rule="evenodd" clip-rule="evenodd" d="M42.2454 44.4832C41.898 44.4832 41.5463 44.3918 41.2266 44.1995C29.3563 37.0593 15.285 41.1892 15.1446 41.2317C14.0988 41.5474 12.9933 40.9574 12.6757 39.9123C12.3579 38.8668 12.9457 37.7624 13.9905 37.4434C14.6323 37.2476 29.856 32.7386 43.2678 40.8062C44.2049 41.3699 44.5077 42.5864 43.9439 43.5234C43.5727 44.1412 42.9172 44.4832 42.2454 44.4832Z" fill="#101010"/>
<path fill-rule="evenodd" clip-rule="evenodd" d="M45.6568 36.3538C45.2608 36.3538 44.8601 36.2533 44.4925 36.042C29.5806 27.4664 14.5582 32.4589 14.4081 32.51C13.1859 32.9291 11.8553 32.2782 11.4355 31.0556C11.0165 29.8331 11.6677 28.5022 12.8903 28.0831C13.5847 27.8452 30.0922 22.3624 46.8253 31.9848C47.9457 32.6292 48.3316 34.0595 47.6875 35.1798C47.2545 35.9326 46.4668 36.3538 45.6568 36.3538Z" fill="#101010"/>
<path fill-rule="evenodd" clip-rule="evenodd" d="M49.3607 27.1285C48.9092 27.1285 48.4513 27.0223 48.024 26.7977C30.834 17.7693 13.1796 23.175 13.0032 23.2305C11.4858 23.7096 9.8683 22.8676 9.38986 21.3513C8.91106 19.8342 9.75238 18.2167 11.2691 17.7379C12.0827 17.4813 31.4111 11.5661 50.7024 21.6983C52.1103 22.4381 52.6525 24.1791 51.9127 25.587C51.3979 26.568 50.3964 27.1285 49.3607 27.1285Z" fill="#101010"/>
</svg>
