<?xml version="1.0" encoding="UTF-8"?>
<svg width="209px" height="14px" viewBox="0 0 209 14" version="1.1" xmlns="http://www.w3.org/2000/svg" xmlns:xlink="http://www.w3.org/1999/xlink">
    <!-- Generator: Sketch 63.1 (92452) - https://sketch.com -->
    <title>logo_white.svg</title>
    <desc>Created with Sketch.</desc>
    <defs>
        <polygon id="path-1" points="0 13.86 208.009998 13.86 208.009998 0.06552 0 0.06552"></polygon>
    </defs>
    <g id="Web" stroke="none" stroke-width="1" fill="none" fill-rule="evenodd">
        <g id="KSG-Landing-Page" transform="translate(-190.000000, -304.000000)">
            <g id="Stage-1-Slider">
                <g id="logo_white.svg" transform="translate(190.000000, 304.000000)">
                    <polygon id="Fill-1" fill="#FFFFFF" points="8.823087 0.8597358 1.449567 8.5269618 1.449567 0.8597358 0.000441 0.8597358 0.000441 13.6998918 1.449567 13.6998918 1.449567 10.2512718 4.182885 7.4817918 9.116793 13.6998918 10.932831 13.6998918 5.191893 6.4727838 10.713213 0.8597358"></polygon>
                    <g id="Group-25" transform="translate(0.000000, 0.060127)">
                        <path d="M18.6757326,10.1545416 L18.6757326,9.2372616 C17.9789526,9.0352836 17.0431506,8.8333056 15.8877306,8.8333056 C14.1078546,8.8333056 13.1173686,9.6041736 13.1173686,10.7966376 L13.1173686,10.8336816 C13.1173686,12.0261456 14.2181046,12.7229256 15.5022966,12.7229256 C17.2451286,12.7229256 18.6757326,11.6592336 18.6757326,10.1545416 M11.6867646,10.8883656 L11.6867646,10.8522036 C11.6867646,8.8518276 13.3378686,7.7881356 15.7404366,7.7881356 C16.9514226,7.7881356 17.8131366,7.9530696 18.6572106,8.1920916 L18.6572106,7.8613416 C18.6572106,6.1555536 17.6120406,5.2753176 15.8321646,5.2753176 C14.7137886,5.2753176 13.8326706,5.5690236 12.9524346,5.9720976 L12.5308386,4.8166776 C13.5760086,4.3395156 14.6035386,4.0281696 15.9794586,4.0281696 C17.3183346,4.0281696 18.3449826,4.3765596 19.0426446,5.0733396 C19.6847406,5.7154356 20.0146086,6.6327156 20.0146086,7.8428196 L20.0146086,13.6402056 L18.6572106,13.6402056 L18.6572106,12.2096016 C17.9965926,13.0713156 16.8967386,13.8421836 15.2271126,13.8421836 C13.4657586,13.8421836 11.6867646,12.8331756 11.6867646,10.8883656" id="Fill-2" fill="#FFFFFF"></path>
                        <path d="M22.657698,4.156236 L24.070662,4.156236 L24.070662,6.632892 C24.767442,5.054994 26.143362,3.917214 27.940878,3.991302 L27.940878,5.513634 L27.830628,5.513634 C25.757928,5.513634 24.070662,6.999804 24.070662,9.861012 L24.070662,13.6395 L22.657698,13.6395 L22.657698,4.156236 Z" id="Fill-4" fill="#FFFFFF"></path>
                        <mask id="mask-2" fill="white">
                            <use xlink:href="#path-1"></use>
                        </mask>
                        <g id="Clip-7"></g>
                        <path d="M29.849526,13.6395 L31.26249,13.6395 L31.26249,4.156236 L29.849526,4.156236 L29.849526,13.6395 Z M29.757798,2.083536 L31.371858,2.083536 L31.371858,0.52416 L29.757798,0.52416 L29.757798,2.083536 Z" id="Fill-6" fill="#FFFFFF" mask="url(#mask-2)"></path>
                        <path d="M34.179264,4.156236 L35.592228,4.156236 L35.592228,5.80734 C36.215802,4.77981 37.206288,3.954258 38.83887,3.954258 C41.131188,3.954258 42.470064,5.495112 42.470064,7.751268 L42.470064,13.6395 L41.057982,13.6395 L41.057982,8.10054 C41.057982,6.339186 40.10454,5.23845 38.434914,5.23845 C36.802332,5.23845 35.592228,6.430914 35.592228,8.209908 L35.592228,13.6395 L34.179264,13.6395 L34.179264,4.156236 Z" id="Fill-8" fill="#FFFFFF" mask="url(#mask-2)"></path>
                        <path d="M51.3872604,10.1545416 L51.3872604,9.2372616 C50.6904804,9.0352836 49.7546784,8.8333056 48.5992584,8.8333056 C46.8193824,8.8333056 45.8288964,9.6041736 45.8288964,10.7966376 L45.8288964,10.8336816 C45.8288964,12.0261456 46.9296324,12.7229256 48.2138244,12.7229256 C49.9566564,12.7229256 51.3872604,11.6592336 51.3872604,10.1545416 M44.3982924,10.8883656 L44.3982924,10.8522036 C44.3982924,8.8518276 46.0493964,7.7881356 48.4519644,7.7881356 C49.6629504,7.7881356 50.5246644,7.9530696 51.3687384,8.1920916 L51.3687384,7.8613416 C51.3687384,6.1555536 50.3235684,5.2753176 48.5436924,5.2753176 C47.4253164,5.2753176 46.5441984,5.5690236 45.6639624,5.9720976 L45.2423664,4.8166776 C46.2875364,4.3395156 47.3150664,4.0281696 48.6909864,4.0281696 C50.0298624,4.0281696 51.0565104,4.3765596 51.7541724,5.0733396 C52.3962684,5.7154356 52.7261364,6.6327156 52.7261364,7.8428196 L52.7261364,13.6402056 L51.3687384,13.6402056 L51.3687384,12.2096016 C50.7081204,13.0713156 49.6082664,13.8421836 47.9386404,13.8421836 C46.1772864,13.8421836 44.3982924,12.8331756 44.3982924,10.8883656" id="Fill-9" fill="#FFFFFF" mask="url(#mask-2)"></path>
                        <path d="M59.9006772,11.7686898 L60.8003172,10.7049978 C62.1391932,11.9159838 63.4225032,12.5210358 65.2023792,12.5210358 C66.9266892,12.5210358 68.0635872,11.6037558 68.0635872,10.3380858 L68.0635872,10.3010418 C68.0635872,9.1085778 67.4214912,8.4303198 64.7252172,7.8614298 C61.7722812,7.2193338 60.4148832,6.2658918 60.4148832,4.1561478 L60.4148832,4.1199858 C60.4148832,2.1019698 62.1938772,0.6157998 64.6334892,0.6157998 C66.5042112,0.6157998 67.8439692,1.1476458 69.1458012,2.1936978 L68.3017272,3.3129558 C67.1101452,2.3401098 65.9176812,1.9185138 64.5964452,1.9185138 C62.9277012,1.9185138 61.8640092,2.8357938 61.8640092,3.9912138 L61.8640092,4.0282578 C61.8640092,5.2383618 62.5237452,5.9175018 65.3487912,6.5225538 C68.2099992,7.1461278 69.5312352,8.1921798 69.5312352,10.1546298 L69.5312352,10.1907918 C69.5312352,12.3931458 67.6966752,13.8237498 65.1468132,13.8237498 C63.1111572,13.8237498 61.4415312,13.1446098 59.9006772,11.7686898" id="Fill-10" fill="#FFFFFF" mask="url(#mask-2)"></path>
                        <path d="M78.1543728,10.1545416 L78.1543728,9.2372616 C77.4575928,9.0352836 76.5217908,8.8333056 75.3663708,8.8333056 C73.5864948,8.8333056 72.5960088,9.6041736 72.5960088,10.7966376 L72.5960088,10.8336816 C72.5960088,12.0261456 73.6967448,12.7229256 74.9809368,12.7229256 C76.7237688,12.7229256 78.1543728,11.6592336 78.1543728,10.1545416 M71.1654048,10.8883656 L71.1654048,10.8522036 C71.1654048,8.8518276 72.8165088,7.7881356 75.2190768,7.7881356 C76.4300628,7.7881356 77.2917768,7.9530696 78.1358508,8.1920916 L78.1358508,7.8613416 C78.1358508,6.1555536 77.0906808,5.2753176 75.3108048,5.2753176 C74.1924288,5.2753176 73.3113108,5.5690236 72.4310748,5.9720976 L72.0094788,4.8166776 C73.0546488,4.3395156 74.0821788,4.0281696 75.4580988,4.0281696 C76.7969748,4.0281696 77.8245048,4.3765596 78.5212848,5.0733396 C79.1633808,5.7154356 79.4941308,6.6327156 79.4941308,7.8428196 L79.4941308,13.6402056 L78.1358508,13.6402056 L78.1358508,12.2096016 C77.4752328,13.0713156 76.3744968,13.8421836 74.7057528,13.8421836 C72.9452808,13.8421836 71.1654048,12.8331756 71.1654048,10.8883656" id="Fill-11" fill="#FFFFFF" mask="url(#mask-2)"></path>
                        <polygon id="Fill-12" fill="#FFFFFF" mask="url(#mask-2)" points="82.265022 13.6395 83.677104 13.6395 83.677104 0.248976 82.265022 0.248976"></polygon>
                        <path d="M92.868426,10.1545416 L92.868426,9.2372616 C92.171646,9.0352836 91.235844,8.8333056 90.080424,8.8333056 C88.300548,8.8333056 87.310062,9.6041736 87.310062,10.7966376 L87.310062,10.8336816 C87.310062,12.0261456 88.410798,12.7229256 89.69499,12.7229256 C91.437822,12.7229256 92.868426,11.6592336 92.868426,10.1545416 M85.879458,10.8883656 L85.879458,10.8522036 C85.879458,8.8518276 87.530562,7.7881356 89.934012,7.7881356 C91.144116,7.7881356 92.00583,7.9530696 92.849904,8.1920916 L92.849904,7.8613416 C92.849904,6.1555536 91.804734,5.2753176 90.024858,5.2753176 C88.906482,5.2753176 88.026246,5.5690236 87.145128,5.9720976 L86.723532,4.8166776 C87.769584,4.3395156 88.796232,4.0281696 90.17127,4.0281696 C91.511028,4.0281696 92.538558,4.3765596 93.235338,5.0733396 C93.877434,5.7154356 94.208184,6.6327156 94.208184,7.8428196 L94.208184,13.6402056 L92.849904,13.6402056 L92.849904,12.2096016 C92.189286,13.0713156 91.08855,13.8421836 89.419806,13.8421836 C87.659334,13.8421836 85.879458,12.8331756 85.879458,10.8883656" id="Fill-13" fill="#FFFFFF" mask="url(#mask-2)"></path>
                        <polygon id="Fill-14" fill="#FFFFFF" mask="url(#mask-2)" points="96.2999352 12.7410948 102.591241 5.3490528 96.5195532 5.3490528 96.5195532 4.1565888 104.517529 4.1565888 104.517529 5.0553468 98.2077012 12.4473888 104.517529 12.4473888 104.517529 13.6398528 96.2999352 13.6398528"></polygon>
                        <path d="M112.957123,10.1545416 L112.957123,9.2372616 C112.260343,9.0352836 111.324541,8.8333056 110.169121,8.8333056 C108.389245,8.8333056 107.398759,9.6041736 107.398759,10.7966376 L107.398759,10.8336816 C107.398759,12.0261456 108.499495,12.7229256 109.783687,12.7229256 C111.526519,12.7229256 112.957123,11.6592336 112.957123,10.1545416 M105.968155,10.8883656 L105.968155,10.8522036 C105.968155,8.8518276 107.619259,7.7881356 110.022709,7.7881356 C111.232813,7.7881356 112.094527,7.9530696 112.938601,8.1920916 L112.938601,7.8613416 C112.938601,6.1555536 111.893431,5.2753176 110.113555,5.2753176 C108.995179,5.2753176 108.114943,5.5690236 107.233825,5.9720976 L106.812229,4.8166776 C107.858281,4.3395156 108.884929,4.0281696 110.259967,4.0281696 C111.599725,4.0281696 112.627255,4.3765596 113.324035,5.0733396 C113.966131,5.7154356 114.296881,6.6327156 114.296881,7.8428196 L114.296881,13.6402056 L112.938601,13.6402056 L112.938601,12.2096016 C112.277983,13.0713156 111.177247,13.8421836 109.508503,13.8421836 C107.748031,13.8421836 105.968155,12.8331756 105.968155,10.8883656" id="Fill-15" fill="#FFFFFF" mask="url(#mask-2)"></path>
                        <path d="M116.93997,4.156236 L118.352052,4.156236 L118.352052,6.632892 C119.049714,5.054994 120.424752,3.917214 122.222268,3.991302 L122.222268,5.513634 L122.112018,5.513634 C120.0402,5.513634 118.352052,6.999804 118.352052,9.861012 L118.352052,13.6395 L116.93997,13.6395 L116.93997,4.156236 Z" id="Fill-16" fill="#FFFFFF" mask="url(#mask-2)"></path>
                        <path d="M128.809926,7.2562014 L128.809926,7.2191574 C128.809926,3.6973314 131.396832,0.5794614 135.248526,0.5794614 C137.412954,0.5794614 138.75183,1.2030354 140.036904,2.2852494 L139.101102,3.3859854 C138.110616,2.5233894 137.00988,1.9183374 135.19296,1.9183374 C132.350274,1.9183374 130.314618,4.3209054 130.314618,7.1829954 L130.314618,7.2191574 C130.314618,10.2832254 132.277068,12.5579034 135.39582,12.5579034 C136.863468,12.5579034 138.219984,11.9890134 139.101102,11.2737114 L139.101102,8.0817534 L135.19296,8.0817534 L135.19296,6.7790394 L140.494662,6.7790394 L140.494662,11.8972854 C139.302198,12.9609774 137.504682,13.8597354 135.340254,13.8597354 C131.305104,13.8597354 128.809926,10.9253214 128.809926,7.2562014" id="Fill-17" fill="#FFFFFF" mask="url(#mask-2)"></path>
                        <path d="M151.008014,8.9439966 L151.008014,8.9069526 C151.008014,6.8712966 149.4848,5.2016706 147.486188,5.2016706 C145.431128,5.2016706 144.018164,6.8712966 144.018164,8.8707906 L144.018164,8.9069526 C144.018164,10.9434906 145.522856,12.5945946 147.52235,12.5945946 C149.576528,12.5945946 151.008014,10.9434906 151.008014,8.9439966 M142.56992,8.9439966 L142.56992,8.9069526 C142.56992,6.2292006 144.661142,3.9545226 147.52235,3.9545226 C150.365036,3.9545226 152.45714,6.1921566 152.45714,8.8707906 L152.45714,8.9069526 C152.45714,11.5855866 150.347396,13.8602646 147.486188,13.8602646 C144.64262,13.8602646 142.56992,11.6226306 142.56992,8.9439966" id="Fill-18" fill="#FFFFFF" mask="url(#mask-2)"></path>
                        <path d="M154.64203,4.156236 L156.054112,4.156236 L156.054112,5.80734 C156.677686,4.77981 157.669054,3.954258 159.300754,3.954258 C161.593954,3.954258 162.93283,5.495112 162.93283,7.751268 L162.93283,13.6395 L161.520748,13.6395 L161.520748,8.10054 C161.520748,6.339186 160.566424,5.23845 158.896798,5.23845 C157.265098,5.23845 156.054112,6.430914 156.054112,8.209908 L156.054112,13.6395 L154.64203,13.6395 L154.64203,4.156236 Z" id="Fill-19" fill="#FFFFFF" mask="url(#mask-2)"></path>
                        <polygon id="Fill-20" fill="#FFFFFF" mask="url(#mask-2)" points="165.026169 12.7410948 171.317475 5.3490528 165.245787 5.3490528 165.245787 4.1565888 173.243763 4.1565888 173.243763 5.0553468 166.933053 12.4473888 173.243763 12.4473888 173.243763 13.6398528 165.026169 13.6398528"></polygon>
                        <path d="M180.288914,0.0658728 L181.756562,0.7450128 L179.66534,2.7259848 L178.565486,2.7259848 L180.288914,0.0658728 Z M181.683356,10.1541888 L181.683356,9.2369088 C180.986576,9.0358128 180.050774,8.8338348 178.895354,8.8338348 C177.115478,8.8338348 176.124992,9.6038208 176.124992,10.7971668 L176.124992,10.8333288 C176.124992,12.0257928 177.225728,12.7225728 178.50992,12.7225728 C180.252752,12.7225728 181.683356,11.6588808 181.683356,10.1541888 L181.683356,10.1541888 Z M174.694388,10.8888948 L174.694388,10.8518508 C174.694388,8.8523568 176.345492,7.7886648 178.748942,7.7886648 C179.959046,7.7886648 180.821642,7.9535988 181.665716,8.1917388 L181.665716,7.8618708 C181.665716,6.1560828 180.619664,5.2749648 178.839788,5.2749648 C177.721412,5.2749648 176.841176,5.5686708 175.960058,5.9726268 L175.538462,4.8163248 C176.584514,4.3400448 177.611162,4.0278168 178.9862,4.0278168 C180.325958,4.0278168 181.353488,4.3762068 182.050268,5.0738688 C182.692364,5.7150828 183.023114,6.6323628 183.023114,7.8433488 L183.023114,13.6398528 L181.665716,13.6398528 L181.665716,12.2092488 C181.005098,13.0718448 179.90348,13.8418308 178.234736,13.8418308 C176.474264,13.8418308 174.694388,12.8328228 174.694388,10.8888948 L174.694388,10.8888948 Z" id="Fill-21" fill="#FFFFFF" mask="url(#mask-2)"></path>
                        <polygon id="Fill-22" fill="#FFFFFF" mask="url(#mask-2)" points="185.794182 13.6395 187.206264 13.6395 187.206264 0.248976 185.794182 0.248976"></polygon>
                        <path d="M197.075315,8.3754594 C196.928903,6.6511494 195.938417,5.1464574 194.048291,5.1464574 C192.397187,5.1464574 191.150039,6.5223774 190.966583,8.3754594 L197.075315,8.3754594 Z M189.535979,8.9258274 L189.535979,8.8887834 C189.535979,6.1554654 191.462267,3.9548754 194.085335,3.9548754 C196.891859,3.9548754 198.505919,6.1925094 198.505919,8.9628714 C198.505919,9.1463274 198.505919,9.2556954 198.488279,9.4206294 L190.966583,9.4206294 C191.168561,11.4756894 192.617687,12.6311094 194.304953,12.6311094 C195.607667,12.6311094 196.524947,12.0992634 197.295815,11.2922334 L198.176051,12.0807414 C197.221727,13.1444334 196.066307,13.8597354 194.268791,13.8597354 C191.663363,13.8597354 189.535979,11.8602414 189.535979,8.9258274 L189.535979,8.9258274 Z" id="Fill-23" fill="#FFFFFF" mask="url(#mask-2)"></path>
                        <polygon id="Fill-24" fill="#FFFFFF" mask="url(#mask-2)" points="199.791963 12.7410948 206.083269 5.3490528 200.011581 5.3490528 200.011581 4.1565888 208.009557 4.1565888 208.009557 5.0553468 201.699729 12.4473888 208.009557 12.4473888 208.009557 13.6398528 199.791963 13.6398528"></polygon>
                    </g>
                </g>
            </g>
        </g>
    </g>
</svg>