<svg width="86" height="29" viewBox="0 0 86 29" fill="none" xmlns="http://www.w3.org/2000/svg">
<path fill-rule="evenodd" clip-rule="evenodd" d="M20.7688 0.903915L8.52173 12.413V0.903915H0V27.2791H8.52173V15.032L20.3262 27.2791H30.3976L16.8955 13.2247L29.9909 0.903915H20.7688Z" fill="black"/>
<path fill-rule="evenodd" clip-rule="evenodd" d="M41.1501 11.5647C39.5268 11.3802 38.1987 11.1957 37.1654 10.9741C35.4318 10.6422 33.1819 10.0522 33.1819 7.91191C33.1819 4.66635 37.7932 4.40817 40.0803 4.40817C43.1048 4.40817 46.7576 4.77659 47.6058 8.28091H52.7335C51.9212 1.97314 45.3559 0.645676 40.0066 0.645676C35.2473 0.645676 28.0171 2.23133 28.0171 8.20779C28.0171 14.5161 35.2113 15.4015 40.0431 15.9173C41.9983 16.1389 44.9132 16.4713 46.7199 17.2824C47.9377 17.8359 48.6014 18.6476 48.6014 20.0122C48.6014 23.701 43.6211 24.2174 40.9285 24.2174C37.3139 24.2174 32.85 23.5536 32.1857 19.3485H26.8735C27.6481 26.2834 35.1736 27.796 40.9285 27.796C46.1675 27.796 53.7291 25.9887 53.7291 19.4587C53.7291 12.782 46.2406 12.044 41.1501 11.5647Z" fill="black"/>
<path fill-rule="evenodd" clip-rule="evenodd" d="M70.5632 27.5751C70.5523 27.5751 70.5415 27.5745 70.5306 27.5745C70.5169 27.5745 70.5038 27.5751 70.4895 27.5751H70.5632Z" fill="black"/>
<path fill-rule="evenodd" clip-rule="evenodd" d="M83.991 14.4049H72.4819V16.1756H83.4746V16.3235C83.4746 23.812 76.5768 25.7666 70.4524 25.7666C62.8537 25.7666 56.3603 22.4102 56.3603 14.2204V13.9256C56.3603 5.88427 63.2964 2.26858 70.3787 2.26858C74.9534 2.26858 80.9665 3.37499 82.5156 8.39241H84.8026C83.2901 2.19489 75.9125 0.570969 70.3787 0.570969C62.2996 0.570969 54.1104 5.14571 54.1104 13.9256V14.2204C54.1104 23.6514 62.3151 27.5642 70.5306 27.5744C76.0062 27.567 81.3252 26.0933 83.991 22.1835V27.2797H85.7617V15.9174V14.4049V14.3997H83.991V14.4049Z" fill="black"/>
</svg>
