<svg width="135" height="44" viewBox="0 0 135 44" fill="none" xmlns="http://www.w3.org/2000/svg">
<path fill-rule="evenodd" clip-rule="evenodd" d="M32.4513 1.4126L13.3152 19.3956V1.4126H0V42.6238H13.3152V23.4877L31.7596 42.6238H47.4962L26.3993 20.6638L46.8607 1.4126H32.4513Z" fill="white"/>
<path fill-rule="evenodd" clip-rule="evenodd" d="M64.2966 18.0698C61.7602 17.7815 59.6851 17.4933 58.0706 17.147C55.3618 16.6284 51.8463 15.7065 51.8463 12.3623C51.8463 7.2911 59.0514 6.88769 62.625 6.88769C67.3508 6.88769 73.0583 7.46335 74.3837 12.9388H82.3957C81.1265 3.08296 70.8681 1.00879 62.5099 1.00879C55.0736 1.00879 43.7763 3.48637 43.7763 12.8246C43.7763 22.6814 55.0173 24.0647 62.567 24.8707C65.622 25.217 70.1764 25.7364 72.9994 27.0037C74.9022 27.8686 75.9393 29.1368 75.9393 31.269C75.9393 37.0328 68.1576 37.8396 63.9504 37.8396C58.3026 37.8396 51.3277 36.8025 50.2898 30.2319H41.9895C43.1997 41.0678 54.9584 43.4311 63.9504 43.4311C72.1364 43.4311 83.9513 40.6072 83.9513 30.4042C83.9513 19.9717 72.2506 18.8186 64.2966 18.0698Z" fill="white"/>
<mask id="mask0_0_189" style="mask-type:alpha" maskUnits="userSpaceOnUse" x="109" y="42" width="2" height="2">
<path fill-rule="evenodd" clip-rule="evenodd" d="M109.751 42.6392H110.644V43.431H109.751V42.6392Z" fill="white"/>
</mask>
<g mask="url(#mask0_0_189)">
<path fill-rule="evenodd" clip-rule="evenodd" d="M110.255 43.0859C110.238 43.0859 110.221 43.085 110.204 43.085C110.183 43.085 110.162 43.0859 110.14 43.0859H110.255Z" fill="white"/>
</g>
<mask id="mask1_0_189" style="mask-type:alpha" maskUnits="userSpaceOnUse" x="84" y="0" width="51" height="44">
<path fill-rule="evenodd" clip-rule="evenodd" d="M84.5474 0.893066H134.003V43.0853H84.5474V0.893066Z" fill="white"/>
</mask>
<g mask="url(#mask1_0_189)">
<path fill-rule="evenodd" clip-rule="evenodd" d="M131.236 22.5075H113.253V25.2743H130.429V25.5055C130.429 37.2061 119.651 40.2603 110.082 40.2603C98.2089 40.2603 88.0629 35.0159 88.0629 22.2193V21.7587C88.0629 9.19412 98.9005 3.5446 109.967 3.5446C117.115 3.5446 126.51 5.27337 128.93 13.1131H132.504C130.141 3.42947 118.613 0.89209 109.967 0.89209C97.3431 0.89209 84.5474 8.04012 84.5474 21.7587V22.2193C84.5474 36.9553 97.3672 43.069 110.204 43.085C118.76 43.0734 127.071 40.7708 131.236 34.6616V42.6245H134.003V24.8709V22.5075V22.4995H131.236V22.5075Z" fill="white"/>
</g>
</svg>
